<svg width="24" height="24" viewBox="0 0 24 24" fill="none" xmlns="http://www.w3.org/2000/svg">
<path fill-rule="evenodd" clip-rule="evenodd" d="M9.75 2.29267C10.1406 2.15482 10.5692 2.36008 10.707 2.75068C10.8446 3.14105 10.6402 3.56873 10.25 3.70674L9.58691 3.94111C8.28156 4.40183 7.36152 4.72762 6.67188 5.06221C5.99935 5.38849 5.61452 5.69243 5.34668 6.07099C5.07902 6.44948 4.92073 6.91346 4.83691 7.65595C4.75098 8.41761 4.75 9.39392 4.75 10.778V13.2224C4.75 14.6066 4.75093 15.5828 4.83691 16.3444C4.92076 17.0871 5.07887 17.5509 5.34668 17.9294C5.6145 18.3079 5.99944 18.6109 6.67188 18.9372C7.36155 19.2718 8.28146 19.5985 9.58691 20.0593L10.25 20.2927C10.6404 20.4307 10.8448 20.8592 10.707 21.2497C10.5691 21.6402 10.1405 21.8446 9.75 21.7067L9.0459 21.4587C7.79254 21.0163 6.79222 20.6626 6.01758 20.2868C5.21705 19.8984 4.58887 19.4554 4.12207 18.7956C3.65537 18.1359 3.44648 17.3965 3.34668 16.5124C3.25012 15.6569 3.24999 14.5963 3.25 13.2673V10.7331C3.24999 9.40386 3.25009 8.3426 3.34668 7.48701C3.4465 6.60297 3.65531 5.86352 4.12207 5.20381C4.58887 4.54407 5.21709 4.10096 6.01758 3.7126C6.79219 3.33683 7.79265 2.98401 9.0459 2.5417L9.75 2.29267ZM16.9619 8.97724C17.2505 8.68031 17.7254 8.67319 18.0225 8.96162C18.1137 9.05032 18.296 9.19667 18.5674 9.40986C18.5869 9.42522 18.6068 9.44091 18.627 9.45674C18.8691 9.64681 19.1537 9.86958 19.4248 10.0993C19.7151 10.3453 20.0165 10.6209 20.251 10.8962C20.3684 11.0341 20.4847 11.1899 20.5742 11.3571C20.6606 11.5186 20.75 11.7414 20.75 11.9997C20.75 12.258 20.6606 12.4808 20.5742 12.6423C20.4847 12.8095 20.3684 12.9653 20.251 13.1032C20.0165 13.3785 19.7151 13.6541 19.4248 13.9001C19.1537 14.1298 18.8691 14.3526 18.627 14.5427C18.6068 14.5585 18.5869 14.5742 18.5674 14.5895C18.296 14.8027 18.1137 14.9491 18.0225 15.0378C17.7254 15.3262 17.2505 15.3191 16.9619 15.0222C16.6735 14.7251 16.6806 14.2502 16.9775 13.9616C17.1391 13.8047 17.3961 13.6029 17.6406 13.4108C17.6594 13.3961 17.6783 13.3808 17.6973 13.3659C17.943 13.173 18.2064 12.9662 18.4551 12.7556C18.4574 12.7536 18.4596 12.7516 18.4619 12.7497H10C9.58579 12.7497 9.25 12.4139 9.25 11.9997C9.25 11.5855 9.58579 11.2497 10 11.2497H18.4619C18.4596 11.2478 18.4574 11.2458 18.4551 11.2438C18.2064 11.0332 17.943 10.8264 17.6973 10.6335C17.6783 10.6186 17.6594 10.6033 17.6406 10.5886C17.3961 10.3965 17.1391 10.1948 16.9775 10.0378C16.6806 9.74918 16.6735 9.27429 16.9619 8.97724Z" fill="#D38A00"/>
</svg>
